<?xml version="1.0" standalone="no"?>
<!DOCTYPE svg PUBLIC "-//W3C//DTD SVG 20010904//EN"
 "http://www.w3.org/TR/2001/REC-SVG-20010904/DTD/svg10.dtd">
<svg version="1.0" xmlns="http://www.w3.org/2000/svg"
 width="410.000000pt" height="410.000000pt" viewBox="0 0 410.000000 410.000000"
 preserveAspectRatio="xMidYMid meet">
<metadata>
Created by potrace 1.14, written by Peter Selinger 2001-2017
</metadata>
<g transform="translate(0.000000,410.000000) scale(0.100000,-0.100000)"
fill="#000000" stroke="none">
<path d="M1562 3216 c-141 -36 -306 -157 -379 -278 -135 -223 -39 -418 266
-543 l54 -22 -119 0 c-220 1 -360 -67 -448 -216 -141 -239 -37 -627 195 -732
52 -23 71 -27 133 -23 132 6 274 98 397 256 29 37 57 72 61 77 5 6 -11 -33
-36 -85 -150 -318 -117 -578 91 -721 178 -123 461 -95 606 60 143 153 152 380
26 651 l-39 85 37 -45 c81 -99 188 -195 263 -234 63 -34 86 -40 151 -44 67 -4
83 -1 138 23 118 53 212 187 245 347 50 244 -36 453 -224 548 -82 41 -152 54
-280 53 l-114 -1 54 23 c151 61 251 138 295 225 69 137 21 296 -132 439 -164
155 -374 210 -524 138 -64 -31 -84 -47 -132 -110 -42 -56 -83 -175 -93 -274
l-8 -68 -12 85 c-37 250 -158 388 -348 396 -39 2 -95 -3 -124 -10z"/>
</g>
</svg>
