<?xml version="1.0" standalone="no"?>
<!DOCTYPE svg PUBLIC "-//W3C//DTD SVG 20010904//EN"
 "http://www.w3.org/TR/2001/REC-SVG-20010904/DTD/svg10.dtd">
<svg version="1.0" xmlns="http://www.w3.org/2000/svg"
 width="410.000000pt" height="410.000000pt" viewBox="0 0 410.000000 410.000000"
 preserveAspectRatio="xMidYMid meet">
<metadata>
Created by potrace 1.14, written by Peter Selinger 2001-2017
</metadata>
<g transform="translate(0.000000,410.000000) scale(0.100000,-0.100000)"
fill="#000000" stroke="none">
<path d="M1890 4087 c-3 -3 -34 -7 -70 -11 -114 -10 -280 -46 -389 -83 -25 -8
-50 -17 -56 -18 -5 -1 -19 -6 -30 -10 -11 -5 -42 -17 -70 -27 -234 -90 -522
-289 -712 -492 -78 -83 -206 -249 -250 -324 -161 -273 -258 -553 -291 -837 -9
-83 -9 -385 1 -473 23 -214 102 -475 202 -674 73 -144 138 -245 244 -376 325
-403 821 -677 1339 -739 84 -10 385 -10 473 -1 150 17 398 78 486 118 24 11
46 20 50 20 12 0 147 63 174 82 14 9 28 15 31 12 3 -2 11 2 18 11 7 8 17 15
22 15 21 0 217 138 311 219 378 326 606 731 691 1226 16 95 20 148 20 315 1
206 -5 272 -38 435 -39 189 -131 430 -222 582 -10 17 -33 55 -51 85 -88 152
-305 390 -473 520 -161 124 -361 235 -535 298 -49 18 -97 35 -105 38 -36 12
-67 20 -190 47 -62 13 -132 27 -155 30 -51 7 -419 17 -425 12z"/>
</g>
</svg>
